<?xml version="1.0" encoding="UTF-8"?>
<svg width="1024" height="1024" viewBox="0 0 1024 1024" fill="none" xmlns="http://www.w3.org/2000/svg">
  <title>DreamSpend (mono) — Piggy dream</title>
  <!-- Monochrome sketch intended for refinement in a vector editor -->
  <g stroke="#111827" stroke-width="44" stroke-linecap="round" stroke-linejoin="round">
    <!-- Piggy body -->
    <path d="M260 610c0-150 110-270 270-270 162 0 274 114 274 262 0 88-42 165-110 214 2 20 6 54 0 78-9 35-42 54-84 54H512c-56 0-90-23-104-62-53-6-101-26-140-58-6 2-15 4-26 4-24 0-46-11-60-28-12-14-18-32-18-51 0-33 18-62 46-77 12-6 28-10 46-10h4z"/>

    <!-- Ear -->
    <path d="M410 340c-12-46-4-98 22-142 52 18 90 56 108 104"/>

    <!-- Tail -->
    <path d="M815 560c50-10 83-46 93-96"/>

    <!-- Legs -->
    <path d="M360 820v96"/>
    <path d="M650 820v96"/>

    <!-- Eye -->
    <path d="M585 515h2"/>

    <!-- Coin slot (top) -->
    <path d="M475 410h150"/>
  </g>

  <!-- Dream coming out: cloud + star -->
  <g>
    <!-- Cloud outline -->
    <path d="M602 250c18-36 62-58 106-46 35 10 61 41 61 76 0 2 0 4 0 6 33 10 56 40 56 74 0 44-38 79-85 79H585c-40 0-73-28-73-63 0-29 22-54 52-61 6-27 21-50 38-65z"
          stroke="#111827" stroke-width="44" stroke-linecap="round" stroke-linejoin="round" fill="none"/>
    <!-- Star -->
    <path d="M644 308l20 41 46 6-34 33 8 46-40-21-41 21 8-46-34-33 46-6 21-41z"
          fill="#111827"/>
    <!-- Stem between slot and cloud -->
    <path d="M560 410c0-52 14-96 42-130" stroke="#111827" stroke-width="44" stroke-linecap="round"/>
  </g>

  <!-- Subtle ×2 mark on the piggy -->
  <g opacity="0.25">
    <text x="440" y="700" font-family="-apple-system, BlinkMacSystemFont, Segoe UI, Roboto, Helvetica, Arial, sans-serif"
          font-size="140" font-weight="700" fill="#111827">×2</text>
  </g>
</svg>

